<svg width="406" height="406" viewBox="0 0 406 406" fill="none" xmlns="http://www.w3.org/2000/svg">
<g clip-path="url(#clip0_24_2015)">
<path d="M85.8942 307.307C77.6417 299.259 63.7943 301.859 62.7331 313.337C62.4206 316.717 62.3162 320.201 62.5446 323.627C63.5862 339.251 71.279 348.269 78.1346 353.26C84.8242 358.13 93.3422 358.843 101.617 358.851C130.826 358.879 202.088 358.947 210.628 358.947C210.628 358.947 165.253 356.962 131.789 340.076C113.25 330.722 98.4789 319.581 85.8942 307.307Z" fill="white"/>
<path d="M150.735 393.633C142.511 401.737 128.664 399.182 128.254 387.643C128.192 385.902 128.208 384.152 128.323 382.423C129.973 357.671 151.64 358.251 151.64 358.251L211.762 358.938C211.762 358.938 207.225 359.952 187.573 368.348C172.533 374.774 160.776 383.738 150.735 393.633Z" fill="white"/>
<path fill-rule="evenodd" clip-rule="evenodd" d="M145.93 126.438C164.412 126.438 179.394 111.456 179.394 92.9738C179.394 74.492 164.412 59.5096 145.93 59.5096C127.448 59.5096 112.466 74.492 112.466 92.9738C112.466 111.456 127.448 126.438 145.93 126.438ZM132.885 87.8691C138.523 87.8691 143.094 83.2982 143.094 77.6597C143.094 72.0212 138.523 67.4502 132.885 67.4502C127.246 67.4502 122.675 72.0212 122.675 77.6597C122.675 83.2982 127.246 87.8691 132.885 87.8691Z" fill="white"/>
<path fill-rule="evenodd" clip-rule="evenodd" d="M263.338 314.745C308.714 298.297 366 251.599 366 166.709C366 81.8176 302.287 13 217.396 13C191.872 13 148.766 17.5375 114.735 46.4642C114.735 46.4642 167.689 19.2391 194.708 67.4502C221.728 115.661 168.618 144.588 168.618 144.588C165.952 172.136 188.049 179.132 212.996 187.03C235.819 194.256 261.027 202.237 271.846 227.398C293.125 276.884 270.797 306.509 264.756 313.26C315.893 291.626 399.553 151.115 211.724 100.914C199.813 91.2722 210.023 81.0628 215.695 81.0628C282.056 82.7644 334.805 135.093 334.805 202.441C334.805 268.85 285.173 304.662 264.755 313.261C263.873 314.247 263.338 314.745 263.338 314.745Z" fill="white"/>
<path d="M157.274 147.991C153.718 169.006 172.092 195.734 188.551 214.834C202.722 231.279 212.291 251.722 212.291 273.431C212.291 280.771 212.291 289.118 212.291 298.297C212.291 339.701 212.291 349.911 212.291 349.911C136.288 349.911 41.5672 285.818 44.403 174.082C49.5078 89.0035 103.958 56.6736 103.958 56.6736C47.8062 116.229 103.958 188.829 157.274 147.991Z" fill="white"/>
<path d="M157.274 147.991C153.871 189.963 121.541 200.74 103.958 200.74C79.5689 200.74 60.8517 183.157 54.6127 163.873C41.6964 123.949 73.8971 75.9581 103.958 56.6736C68.7924 104.885 108.496 154.798 157.274 147.991Z" fill="white"/>
</g>
<defs>
<clipPath id="clip0_24_2015">
<rect width="406" height="406" fill="white"/>
</clipPath>
</defs>
</svg>
