<svg width="287" height="357" viewBox="0 0 287 357" fill="none" xmlns="http://www.w3.org/2000/svg">
<path d="M41.7912 261.566C33.397 253.665 19.4721 256.304 18.9458 267.819C18.8545 269.818 18.8594 271.835 18.9924 273.83C19.8514 286.715 25.8425 294.504 31.5599 299.057C38.0327 304.212 46.6607 304.875 54.9353 304.883C81.5402 304.908 142.147 304.965 149.534 304.965C149.534 304.965 109.534 303.216 80.0336 288.33C64.7668 280.626 52.3978 271.548 41.7912 261.566Z" fill="black"/>
<path d="M98.9516 333.407C90.5457 341.322 76.5638 338.726 76.9056 327.185C76.9207 326.676 76.9447 326.167 76.9785 325.66C78.4332 303.841 97.5337 304.352 97.5337 304.352L150.534 304.958C150.534 304.958 146.534 305.852 129.209 313.253C117.042 318.452 107.312 325.535 98.9516 333.407Z" fill="black"/>
<path d="M286.5 135.5C286.5 210.335 236 251.5 196 266C196 266 225 239 203.5 189C183.536 142.573 108 162.5 112.5 116C112.5 116 159.319 90.5 135.5 48C111.681 5.5 65.0001 29.5 65.0001 29.5C95.0001 4 133 0 155.5 0C230.335 0 286.5 60.6654 286.5 135.5Z" fill="#FF953C"/>
<path d="M287 135.5C287 210.334 233.5 253.5 196 266C196 266 225.5 238 214.5 188.5C203.5 139 287 135.5 287 135.5Z" fill="#B470A5"/>
<circle cx="92.5" cy="70.5" r="29.5" fill="black"/>
<circle cx="81" cy="57" r="9" fill="white"/>
<path d="M259 167C259 226.371 214 258 196.5 265C241.5 247.001 317 122 150.5 77.4999C140 69 149 60 154 60C212.5 61.5 259 107.629 259 167Z" fill="#D2EE5E"/>
<path d="M102.5 119C99.5523 136.418 113.695 158.289 127.456 174.836C141.337 191.527 151 211.911 151 233.62C151 239.061 151 245.048 151 251.5C151 288 151 297 151 297C84 297 0.500031 240.5 2.99992 142C7.49998 67 55.4997 38.5 55.4997 38.5C5.99992 91 55.4997 155 102.5 119Z" fill="black"/>
<path d="M102.5 119C99.5001 156 71 165.5 55.5 165.5C34 165.5 17.5001 150 12.0001 133C0.613909 97.8062 29.0001 55.5 55.5 38.5C24.5 81 59.5 125 102.5 119Z" fill="#F3E444"/>
</svg>
